<?xml version="1.0" standalone="no"?>
<!DOCTYPE svg PUBLIC "-//W3C//DTD SVG 20010904//EN"
 "http://www.w3.org/TR/2001/REC-SVG-20010904/DTD/svg10.dtd">
<svg version="1.0" xmlns="http://www.w3.org/2000/svg"
 width="862.000000pt" height="360.000000pt" viewBox="0 0 862.000000 360.000000"
 preserveAspectRatio="xMidYMid meet">

<g transform="translate(0.000000,360.000000) scale(0.100000,-0.100000)"
fill="#000000" stroke="none">
<path d="M0 1800 l0 -1799 4310 0 4310 0 0 1799 0 1800 -1211 0 c-1082 0
-1210 -2 -1205 -15 56 -148 43 -290 -40 -407 -30 -43 -132 -108 -169 -108 -8
0 -15 -5 -15 -11 0 -6 -7 -9 -15 -5 -8 3 -15 1 -15 -4 0 -12 -62 -10 -71 2 -3
5 -14 5 -24 2 -18 -7 -18 -8 1 -15 18 -7 18 -8 0 -8 -10 -1 -25 7 -32 17 -8
10 -13 12 -14 4 0 -9 -5 -9 -17 -3 -10 6 -36 18 -58 27 -69 30 -126 83 -153
143 -23 50 -26 69 -26 171 0 113 3 127 42 202 2 5 -1257 8 -2797 8 l-2801 0 0
-1800z m784 1514 c10 -25 7 -34 -9 -34 -8 0 -15 -5 -15 -11 0 -6 7 -8 16 -5 8
3 12 2 9 -4 -3 -6 -14 -10 -25 -10 -13 0 -17 5 -13 19 3 10 0 22 -6 25 -6 4
-11 12 -11 17 0 6 5 7 10 4 6 -3 10 -1 10 4 0 17 27 13 34 -5z m931 -15 c5
-14 1 -25 -12 -36 -17 -14 -17 -14 0 -9 11 3 16 2 12 -4 -3 -6 -14 -10 -25
-10 -13 0 -17 5 -13 20 3 11 0 20 -6 20 -6 0 -11 7 -11 16 0 8 5 12 10 9 6 -3
10 -1 10 4 0 20 29 11 35 -10z m470 -40 c5 -14 1 -25 -12 -36 -17 -14 -17 -14
0 -9 11 3 16 2 12 -4 -3 -6 -14 -10 -25 -10 -13 0 -17 5 -13 20 3 11 0 20 -6
20 -6 0 -11 7 -11 16 0 8 5 12 10 9 6 -3 10 -1 10 4 0 20 29 11 35 -10z m2010
-30 c5 -14 1 -25 -12 -36 -17 -14 -17 -14 0 -9 11 3 16 2 12 -4 -3 -6 -14 -10
-25 -10 -13 0 -17 5 -13 20 3 11 0 20 -6 20 -6 0 -11 7 -11 16 0 8 5 12 10 9
6 -3 10 -1 10 4 0 20 29 11 35 -10z m-1630 -50 c5 -14 1 -25 -12 -36 -17 -14
-17 -14 0 -9 11 3 16 2 12 -4 -3 -6 -14 -10 -25 -10 -13 0 -17 5 -13 20 3 11
0 20 -6 20 -6 0 -11 7 -11 16 0 8 5 12 10 9 6 -3 10 -1 10 4 0 20 29 11 35
-10z m4870 -10 c5 -14 1 -25 -12 -36 -17 -14 -17 -14 0 -9 11 3 16 2 12 -4 -3
-6 -14 -10 -25 -10 -13 0 -17 5 -13 20 3 11 0 20 -6 20 -6 0 -11 7 -11 16 0 8
5 12 10 9 6 -3 10 -1 10 4 0 20 29 11 35 -10z m-2461 -5 c10 -25 7 -34 -9 -34
-8 0 -15 -5 -15 -11 0 -6 7 -8 16 -5 8 3 12 2 9 -4 -3 -6 -14 -10 -25 -10 -13
0 -17 5 -13 19 3 10 0 22 -6 25 -6 4 -11 12 -11 17 0 6 5 7 10 4 6 -3 10 -1
10 4 0 17 27 13 34 -5z m-1460 -110 c10 -25 7 -34 -9 -34 -8 0 -15 -5 -15 -11
0 -6 7 -8 16 -5 8 3 12 2 9 -4 -3 -6 -14 -10 -25 -10 -13 0 -17 5 -13 19 3 10
0 22 -6 25 -6 4 -11 12 -11 17 0 6 5 7 10 4 6 -3 10 -1 10 4 0 17 27 13 34 -5z
m4791 -65 c5 -14 1 -25 -12 -36 -17 -14 -17 -14 0 -9 11 3 16 2 12 -4 -3 -6
-14 -10 -25 -10 -13 0 -17 5 -13 20 3 11 0 20 -6 20 -6 0 -11 7 -11 16 0 8 5
12 10 9 6 -3 10 -1 10 4 0 20 29 11 35 -10z m-1490 -70 c5 -14 1 -25 -12 -36
-17 -14 -17 -14 0 -9 11 3 16 2 12 -4 -3 -6 -14 -10 -25 -10 -13 0 -17 5 -13
20 3 11 0 20 -6 20 -6 0 -11 7 -11 16 0 8 5 12 10 9 6 -3 10 -1 10 4 0 20 29
11 35 -10z m-5421 -175 c10 -25 7 -34 -9 -34 -8 0 -15 -5 -15 -11 0 -6 7 -8
16 -5 8 3 12 2 9 -4 -3 -6 -14 -10 -25 -10 -13 0 -17 5 -13 20 3 11 0 20 -6
20 -6 0 -11 7 -11 16 0 8 5 12 10 9 6 -3 10 -1 10 4 0 17 27 13 34 -5z m821
-5 c5 -14 1 -25 -12 -36 -17 -14 -17 -14 0 -9 11 3 16 2 12 -4 -3 -6 -14 -10
-25 -10 -13 0 -17 5 -13 20 3 11 0 20 -6 20 -6 0 -11 7 -11 16 0 8 5 12 10 9
6 -3 10 -1 10 4 0 20 29 11 35 -10z m5730 0 c5 -14 1 -25 -12 -36 -17 -14 -17
-14 0 -9 11 3 16 2 12 -4 -3 -6 -14 -10 -25 -10 -13 0 -17 5 -13 20 3 11 0 20
-6 20 -6 0 -11 7 -11 16 0 8 5 12 10 9 6 -3 10 -1 10 4 0 20 29 11 35 -10z
m-3360 -60 c5 -14 1 -25 -12 -36 -17 -14 -17 -14 0 -9 11 3 16 2 12 -4 -3 -6
-14 -10 -25 -10 -13 0 -17 5 -13 20 3 11 0 20 -6 20 -6 0 -11 7 -11 16 0 8 5
12 10 9 6 -3 10 -1 10 4 0 20 29 11 35 -10z m499 -25 c10 -25 7 -34 -9 -34 -8
0 -15 -5 -15 -11 0 -6 7 -8 16 -5 8 3 12 2 9 -4 -3 -6 -14 -10 -25 -10 -13 0
-17 5 -13 19 3 10 0 22 -6 25 -6 4 -11 12 -11 17 0 6 5 7 10 4 6 -3 10 -1 10
4 0 17 27 13 34 -5z m-2099 -125 c5 -14 1 -25 -12 -36 -17 -14 -17 -14 0 -9
11 3 16 2 12 -4 -3 -6 -14 -10 -25 -10 -13 0 -17 5 -13 20 3 11 0 20 -6 20 -6
0 -11 7 -11 16 0 8 5 12 10 9 6 -3 10 -1 10 4 0 20 29 11 35 -10z m-2410 -130
c5 -14 1 -25 -12 -36 -17 -14 -17 -14 0 -9 11 3 16 2 12 -4 -3 -6 -14 -10 -25
-10 -13 0 -17 5 -13 20 3 11 0 20 -6 20 -6 0 -11 7 -11 16 0 8 5 12 10 9 6 -3
10 -1 10 4 0 20 29 11 35 -10z m7270 -60 c5 -14 1 -25 -12 -36 -17 -14 -17
-14 0 -9 11 3 16 2 12 -4 -3 -6 -14 -10 -25 -10 -13 0 -17 5 -13 20 3 11 0 20
-6 20 -6 0 -11 7 -11 16 0 8 5 12 10 9 6 -3 10 -1 10 4 0 20 29 11 35 -10z
m-1820 -30 c5 -14 1 -25 -12 -36 -17 -14 -17 -14 0 -9 11 3 16 2 12 -4 -3 -6
-14 -10 -25 -10 -13 0 -17 5 -13 20 3 11 0 20 -6 20 -6 0 -11 7 -11 16 0 8 5
12 10 9 6 -3 10 -1 10 4 0 20 29 11 35 -10z m-5364 -1182 c-10 -9 -11 -8 -5 6
3 10 9 15 12 12 3 -3 0 -11 -7 -18z"/>
<path d="M6050 3346 c0 -2 8 -10 18 -17 15 -13 16 -12 3 4 -13 16 -21 21 -21
13z"/>
<path d="M5880 3289 c0 -5 5 -7 10 -4 6 3 10 8 10 11 0 2 -4 4 -10 4 -5 0 -10
-5 -10 -11z"/>
<path d="M5705 3130 c3 -5 8 -10 11 -10 2 0 4 5 4 10 0 6 -5 10 -11 10 -5 0
-7 -4 -4 -10z"/>
</g>
</svg>
